<svg width="24" height="24" viewBox="0 0 24 24" fill="none" xmlns="http://www.w3.org/2000/svg">
<path d="M7.26693 9.37958L13.072 11.4729C13.659 11.7016 14.1683 12.444 13.6978 13.2511C13.3871 13.8596 11.0694 16.3845 11.0694 16.3845C11.0564 16.432 3.58104 13.6568 3.58104 13.6568C2.97248 13.4237 2.61856 12.7893 2.8171 12.0512C3.01564 11.3132 6.56342 9.09904 7.26693 9.37527V9.37958Z" fill="#00101A"/>
<path d="M7.27084 9.37372L13.0759 11.467C13.6629 11.6958 14.1722 12.4381 13.7017 13.2452C13.391 13.8538 11.0733 16.3787 11.0733 16.3787C11.0603 16.4261 3.58494 13.6509 3.58494 13.6509C2.97638 13.4179 2.62247 12.7834 2.821 12.0454C3.01954 11.3073 6.56733 9.09318 7.27084 9.36941V9.37372Z" fill="url(#paint0_linear_11492_3689)" style="mix-blend-mode:multiply"/>
<path d="M7.26693 9.37372L13.072 11.467C13.659 11.6958 14.1683 12.4381 13.6978 13.2452C13.3871 13.8538 11.0694 16.3787 11.0694 16.3787C11.0564 16.4261 3.58104 13.6509 3.58104 13.6509C2.97248 13.4179 2.61856 12.7834 2.8171 12.0454C3.01564 11.3073 6.56342 9.09318 7.26693 9.36941V9.37372Z" fill="url(#paint1_linear_11492_3689)" style="mix-blend-mode:multiply"/>
<path d="M14.6925 9.05496C14.904 8.86074 17.9986 5.9992 21.978 2.555C22.0298 2.50753 21.978 2.42552 21.9132 2.45574C20.0789 3.39232 16.393 4.25552 16.393 4.25552L8.83133 5.66255C6.25465 6.18911 6.01727 6.62071 4.9771 8.29534L4.70088 8.73126C4.68793 8.75284 4.24769 9.54699 2.83203 12.0028C3.26364 11.2561 3.75135 11.1957 6.65173 10.6519C7.20418 10.5354 8.52057 10.2332 9.34494 10.0649C10.4887 9.83185 14.3861 9.11538 14.6623 9.06359C14.6752 9.06359 14.6796 9.05928 14.6882 9.05064L14.6925 9.05496Z" fill="#E73928"/>
<path d="M4.9608 15.4033L2 20.725L7.81371 19.3525C10.3861 18.813 10.6234 18.3814 11.6593 16.7024L11.9355 16.2622C11.9355 16.2622 12.2679 15.7529 13.6965 13.2539C13.2908 13.9963 11.6981 13.9833 9.98036 14.3545C9.4279 14.4753 4.96512 15.4033 4.96512 15.4033H4.9608Z" fill="#E73928"/>
<defs>
<linearGradient id="paint0_linear_11492_3689" x1="10.1151" y1="16.875" x2="7.37011" y2="10.2542" gradientUnits="userSpaceOnUse">
<stop stop-color="white"/>
<stop offset="0.32" stop-color="#FDFCFD"/>
<stop offset="0.47" stop-color="#F9F5F6"/>
<stop offset="0.57" stop-color="#F2E9EA"/>
<stop offset="0.66" stop-color="#E8D7DA"/>
<stop offset="0.74" stop-color="#DABFC4"/>
<stop offset="0.81" stop-color="#CAA3AA"/>
<stop offset="0.87" stop-color="#B6818B"/>
<stop offset="0.93" stop-color="#A05966"/>
<stop offset="0.98" stop-color="#872D3E"/>
<stop offset="1" stop-color="#7E1E30"/>
</linearGradient>
<linearGradient id="paint1_linear_11492_3689" x1="8.7387" y1="13.3272" x2="10.8234" y2="17.134" gradientUnits="userSpaceOnUse">
<stop stop-color="white"/>
<stop offset="0.22" stop-color="#FCFCFC"/>
<stop offset="0.35" stop-color="#F3F3F3"/>
<stop offset="0.47" stop-color="#E5E5E5"/>
<stop offset="0.57" stop-color="#D0D0D0"/>
<stop offset="0.66" stop-color="#B5B5B5"/>
<stop offset="0.75" stop-color="#959595"/>
<stop offset="0.83" stop-color="#6D6D6D"/>
<stop offset="0.91" stop-color="#404040"/>
<stop offset="0.98" stop-color="#0E0E0E"/>
<stop offset="1"/>
</linearGradient>
</defs>
</svg>
