<svg width="20" height="15" viewBox="0 0 20 15" fill="none" xmlns="http://www.w3.org/2000/svg">
<path fill-rule="evenodd" clip-rule="evenodd" d="M0 0V15H20V0H0Z" fill="#2E42A5"/>
<mask id="mask0_11859_4002" style="mask-type:luminance" maskUnits="userSpaceOnUse" x="0" y="0" width="20" height="15">
<path fill-rule="evenodd" clip-rule="evenodd" d="M0 0V15H20V0H0Z" fill="white"/>
</mask>
<g mask="url(#mask0_11859_4002)">
<path d="M-2.22656 13.9297L2.17449 15.791L20.1003 2.025L22.4217 -0.740923L17.7154 -1.36302L10.4039 4.56915L4.51893 8.56604L-2.22656 13.9297Z" fill="white"/>
<path d="M-1.625 15.2324L0.617135 16.3125L21.5872 -0.999336H18.4389L-1.625 15.2324Z" fill="#F50100"/>
<path d="M22.2266 13.9297L17.8255 15.791L-0.100267 2.025L-2.42172 -0.740923L2.28457 -1.36302L9.59607 4.56915L15.4811 8.56604L22.2266 13.9297Z" fill="white"/>
<path d="M22.0742 14.8652L19.8321 15.9453L10.9028 8.53322L8.2555 7.70508L-2.64727 -0.731918H0.500942L11.3976 7.50482L14.292 8.49785L22.0742 14.8652Z" fill="#F50100"/>
<mask id="path-7-inside-1_11859_4002" fill="white">
<path d="M12.3643 5H21.2695V10H12.3643V16.25H7.6416V10H-1.23047V5H7.6416V-1.25H12.3643V5Z"/>
</mask>
<path d="M12.3643 5H21.2695V10H12.3643V16.25H7.6416V10H-1.23047V5H7.6416V-1.25H12.3643V5Z" fill="#F50100"/>
<path d="M12.3643 5H11.1143V6.25H12.3643V5ZM21.2695 5H22.5195V3.75H21.2695V5ZM21.2695 10V11.25H22.5195V10H21.2695ZM12.3643 10V8.75H11.1143V10H12.3643ZM12.3643 16.25V17.5H13.6143V16.25H12.3643ZM7.6416 16.25H6.3916V17.5H7.6416V16.25ZM7.6416 10H8.8916V8.75H7.6416V10ZM-1.23047 10H-2.48047V11.25H-1.23047V10ZM-1.23047 5V3.75H-2.48047V5H-1.23047ZM7.6416 5V6.25H8.8916V5H7.6416ZM7.6416 -1.25V-2.5H6.3916V-1.25H7.6416ZM12.3643 -1.25H13.6143V-2.5H12.3643V-1.25ZM12.3643 5V6.25H21.2695V5V3.75H12.3643V5ZM21.2695 5H20.0195V10H21.2695H22.5195V5H21.2695ZM21.2695 10V8.75H12.3643V10V11.25H21.2695V10ZM12.3643 10H11.1143V16.25H12.3643H13.6143V10H12.3643ZM12.3643 16.25V15H7.6416V16.25V17.5H12.3643V16.25ZM7.6416 16.25H8.8916V10H7.6416H6.3916V16.25H7.6416ZM7.6416 10V8.75H-1.23047V10V11.25H7.6416V10ZM-1.23047 10H0.0195312V5H-1.23047H-2.48047V10H-1.23047ZM-1.23047 5V6.25H7.6416V5V3.75H-1.23047V5ZM7.6416 5H8.8916V-1.25H7.6416H6.3916V5H7.6416ZM7.6416 -1.25V0H12.3643V-1.25V-2.5H7.6416V-1.25ZM12.3643 -1.25H11.1143V5H12.3643H13.6143V-1.25H12.3643Z" fill="white" mask="url(#path-7-inside-1_11859_4002)"/>
</g>
</svg>
